<?xml version="1.0" encoding="UTF-8"?>
<svg id="Layer_1" data-name="Layer 1" xmlns="http://www.w3.org/2000/svg" viewBox="0 0 1100 700">
  <defs>
    <style>
      .cls-1 {
        fill: #fff;
      }

      .cls-2 {
        fill: #25bfb7;
      }

      .cls-3 {
        fill: #13191e;
      }

      .cls-4 {
        fill: #45d7ac;
      }
    </style>
  </defs>
  <rect class="cls-3" x="-20" y="-12.73" width="1140" height="725.45"/>
  <g>
    <g>
      <path class="cls-2" d="m428.14,345.8v23.12c0,2.74-1.81,5.15-4.45,5.92l-41.85,12.07c-3.94,1.14-7.86-1.82-7.86-5.92v-14.08l23.93-6.9c4.06-1.17,6.85-4.88,6.85-9.1v-23.92l20.63,13.7c1.72,1.14,2.75,3.07,2.75,5.13Z"/>
      <path class="cls-4" d="m404.77,326.97l-30.78,23.65v16.28l-15.52,4.47c-3.94,1.13-7.86-1.82-7.86-5.92v-27.34c0-1.91.89-3.72,2.41-4.88l24.89-19.12c2.09-1.6,4.96-1.7,7.16-.25l19.71,13.09Z"/>
      <path class="cls-1" d="m404.77,326.97v28.37c0,1.59-1.05,2.98-2.57,3.42l-28.21,8.14v-16.28l30.78-23.65Z"/>
    </g>
    <g>
      <path class="cls-1" d="m475.53,323.57h-12.93l-18.72,50.01h10.79l4.29-11.79h20.22l4.21,11.79h10.86l-18.72-50.01Zm-13.07,28.51l6.57-18.15,6.57,18.15h-13.14Z"/>
      <path class="cls-1" d="m498.68,323.57v50.01h10.22v-50.01h-10.22Z"/>
      <path class="cls-1" d="m515.69,323.57v50.01h10.21v-50.01h-10.21Z"/>
      <polygon class="cls-1" points="588.27 323.57 579.7 362.43 571.12 323.57 564.66 323.57 558.2 323.57 549.62 362.43 541.05 323.57 530.55 323.57 543.19 373.58 555.84 373.58 563.99 335.63 564.66 335.63 565.33 335.63 573.48 373.58 586.13 373.58 598.77 323.57 588.27 323.57"/>
      <path class="cls-1" d="m632.9,339.28c-3.98-3.91-8.83-5.86-14.54-5.86s-10.55,1.95-14.51,5.86c-3.95,3.9-5.93,8.79-5.93,14.64s1.97,10.75,5.9,14.65c3.93,3.91,8.77,5.86,14.54,5.86s10.68-1.94,14.61-5.82c3.93-3.89,5.89-8.78,5.89-14.69s-1.99-10.74-5.96-14.64Zm-7.29,22.43c-1.93,2-4.35,3-7.25,3s-5.33-1-7.25-3c-1.93-2-2.9-4.59-2.9-7.79s.97-5.78,2.9-7.78c1.92-2,4.34-3,7.25-3s5.32,1,7.25,3,2.89,4.59,2.89,7.78-.96,5.79-2.89,7.79Z"/>
      <path class="cls-1" d="m667.09,333.42c-5.77,0-9.86,2.57-12.29,7.71v-6.85h-10.22v39.29h10.22v-17.5c0-4.34,1.1-7.44,3.32-9.33,2.21-1.88,5.13-2.82,8.75-2.82.62,0,1.45.05,2.5.14v-10.5c-.86-.09-1.62-.14-2.28-.14Z"/>
      <path class="cls-1" d="m694.09,353l17.94-18.72h-13.01l-14.93,16.36v-27.08h-10.22v50.01h10.22v-17.15l16.08,17.15h13.07l-19.15-20.57Z"/>
      <path class="cls-1" d="m748.32,356.5c-.71-1.34-1.9-2.48-3.57-3.43-1.67-.96-3.43-1.73-5.29-2.33-1.85-.59-4.38-1.25-7.57-1.96s-5.24-1.26-6.15-1.64c-.9-.38-1.35-1-1.35-1.86,0-2.19,2.19-3.29,6.57-3.29s6.79,1.34,7.65,4h10.36c-.72-3.86-2.53-6.91-5.43-9.18-2.91-2.26-6.98-3.39-12.22-3.39s-9.42,1.15-12.54,3.46-4.68,5.52-4.68,9.61c0,3.29,1.15,5.76,3.46,7.4,2.31,1.64,6.4,3.15,12.26,4.53.52.15,1.14.29,1.85.43.72.15,1.28.27,1.68.36.41.1.89.22,1.43.36.55.14.97.26,1.25.36.29.09.61.21.97.35.36.15.63.3.82.47.19.17.37.34.54.53.16.19.28.41.35.65.07.23.11.5.11.78,0,2.15-2.22,3.22-6.65,3.22-5.47,0-8.64-1.76-9.5-5.29h-10.36c.72,4.29,2.84,7.66,6.36,10.11,3.53,2.45,7.93,3.68,13.22,3.68s9.29-1.12,12.57-3.36c3.29-2.24,4.93-5.48,4.93-9.72,0-1.9-.35-3.52-1.07-4.85Z"/>
    </g>
  </g>
</svg>
